<?xml version="1.0" encoding="utf-8" standalone="no"?>
<svg xmlns:dc="http://purl.org/dc/elements/1.1/" xmlns:cc="http://creativecommons.org/ns#" xmlns:rdf="http://www.w3.org/1999/02/22-rdf-syntax-ns#" xmlns:svg="http://www.w3.org/2000/svg" xmlns="http://www.w3.org/2000/svg" xmlns:sodipodi="http://sodipodi.sourceforge.net/DTD/sodipodi-0.dtd" xmlns:inkscape="http://www.inkscape.org/namespaces/inkscape" width="500" height="500" viewBox="0 0 132.29166 132.29167" version="1.1" id="svg1279" inkscape:version="0.92.4 (5da689c313, 2019-01-14)">
  <defs id="defs1273">
    <clipPath id="clipPath1228-6-5">
      <path style="fill:#a8d2e8;fill-opacity:1;stroke:#000000;stroke-width:0.26499999;stroke-linecap:butt;stroke-linejoin:miter;stroke-miterlimit:4;stroke-dasharray:none;stroke-opacity:1" d="m 34.932683,31.146123 143.998757,0.422878 c 6.67373,-0.16814 13.09723,1.00007 12.59178,11.255441 l -0.15235,101.648618 c -9.13052,-3.22248 -17.34035,-13.71791 -25.11979,-14.66436 -8.90651,-1.08357 -10.20951,3.01044 -16.86762,5.97332 -9.50816,4.23117 -16.43019,2.23267 -16.43019,2.23267 C 85.721862,127.7636 95.097002,49.304853 84.655152,51.305873 72.398184,54.630431 81.434326,127.51955 67.332566,144.55284 c -4.943207,5.72855 -15.54395,7.09539 -26.144196,7.51478 -6.627095,0.2622 -13.141555,-1.10843 -17.69293,-2.49406 0,0 -0.103305,-67.349926 0.08171,-107.014275 0.029,-6.218277 4.997792,-11.507724 11.355533,-11.413162" id="path1230-35-3"/>
    </clipPath>
    <clipPath id="clipPath1224-2-9">
      <path style="fill:#a8d2e8;fill-opacity:1;stroke:#000000;stroke-width:0.26499999;stroke-linecap:butt;stroke-linejoin:miter;stroke-miterlimit:4;stroke-dasharray:none;stroke-opacity:1" d="m 34.932683,31.146123 143.998757,0.422878 c 6.67373,-0.16814 13.09723,1.00007 12.59178,11.255441 l -0.15235,101.648618 c -9.13052,-3.22248 -17.34035,-13.71791 -25.11979,-14.66436 -8.90651,-1.08357 -10.20951,3.01044 -16.86762,5.97332 -9.50816,4.23117 -16.43019,2.23267 -16.43019,2.23267 C 85.721862,127.7636 95.097002,49.304853 84.655152,51.305873 72.398184,54.630431 81.434326,127.51955 67.332566,144.55284 c -4.943207,5.72855 -15.54395,7.09539 -26.144196,7.51478 -6.627095,0.2622 -13.141555,-1.10843 -17.69293,-2.49406 0,0 -0.103305,-67.349926 0.08171,-107.014275 0.029,-6.218277 4.997792,-11.507724 11.355533,-11.413162" id="path1226-5-7"/>
    </clipPath>
  </defs>
  
  <metadata id="metadata1276">
    
  </metadata>
  <g inkscape:label="Layer 1" id="layer1" transform="translate(0,-164.70831)">
    <g id="g830" transform="matrix(1.063788,0,0,1.1721022,0.20364167,-51.692247)">
      <path clip-path="url(#clipPath1224-2-9)" id="path995-0-7-6-7-9" d="m 180.25726,197.21377 -144.53013,0.15982 c -10.17781,0.16038 -12.23971,-5.78307 -12.20647,-14.0121 l -0.11081,-24.61652 c 3.53372,1.08468 8.73417,2.78234 20.38254,3.51447 19.65332,0.3109 20.9989,-0.40463 41.56829,-3.50613 21.88277,-4.19223 29.27226,-5.99412 29.27226,-5.99412 5.07885,-1.10524 7.61449,-1.66534 15.40061,-3.39249 7.46785,-1.52917 13.9229,-3.14737 22.99237,-4.53577 13.48306,-2.40227 18.44398,-2.62253 24.80001,-2.46441 6.10358,0.15182 11.91762,1.83787 13.54494,2.81224 0,0 -0.0117,21.85032 -0.0817,39.29934 -0.029,7.23125 -4.66821,12.77727 -11.03187,12.73567" style="fill:#ffffff;stroke:none;stroke-width:0.26499999;stroke-linecap:butt;stroke-linejoin:miter;stroke-miterlimit:4;stroke-dasharray:none;stroke-opacity:1" transform="matrix(0.73933342,0,0,0.72723427,-17.44693,153.60117)"/>
      <path id="path2225-0-9" d="m -0.13923444,269.04596 c 6.89358214,0.42531 9.83658014,2.43056 22.14225244,2.39673 12.151167,-0.0334 39.541016,-6.57097 49.722177,-8.46366 27.452234,-5.1034 44.765255,-8.53427 52.314765,-3.79888" style="fill:none;stroke:none;stroke-width:0.41135824;stroke-linecap:butt;stroke-linejoin:miter;stroke-miterlimit:4;stroke-dasharray:none;stroke-opacity:1"/>
      <rect ry="10.553734" y="184.6834" x="-0.19143069" height="112.80962" width="124.04495" id="rect2236-4-4" style="opacity:1;fill:none;fill-opacity:1;fill-rule:evenodd;stroke:none;stroke-width:0.41156068;stroke-linecap:round;stroke-linejoin:round;stroke-miterlimit:4;stroke-dasharray:none;stroke-dashoffset:0;stroke-opacity:1;" rx="11.628308"/>
      <g id="g1232" transform="matrix(0.73933342,0,0,0.72723427,-128.69715,-131.78368)">
        <rect rx="15.699867" transform="translate(150.47368,392.42493)" style="opacity:0.7770004;fill:#86c0de;fill-opacity:1;fill-rule:evenodd;stroke:none;stroke-width:0.56099999;stroke-linecap:butt;stroke-linejoin:round;stroke-miterlimit:4;stroke-dasharray:none;stroke-dashoffset:0;stroke-opacity:1;" id="rect1016-2-6-6" width="168.22488" height="140.27039" x="23.318672" y="42.661411" clip-path="url(#clipPath1228-6-5)" ry="14.486104"/>
        <path style="opacity:1;fill:#20409a;fill-opacity:1;fill-rule:evenodd;stroke:none;stroke-width:0.56669569;stroke-linecap:round;stroke-linejoin:round;stroke-miterlimit:4;stroke-dasharray:none;stroke-dashoffset:0;stroke-opacity:1;" d="m 195.21106,553.80923 c -3.76322,-0.31121 -6.54417,-0.70513 -11.49259,-1.62795 -2.27847,-0.4249 -5.37546,-0.91941 -6.88219,-1.09891 l -2.73951,-0.32637 v -4.29742 -4.29743 l 2.91549,0.73263 c 4.8487,1.21842 8.24776,1.63067 13.38795,1.62374 12.84249,-0.0173 22.297,-2.40134 26.69467,-6.73128 3.07098,-3.02366 5.51315,-9.29938 7.11312,-18.27876 1.33712,-7.50413 2.13369,-16.48599 3.07317,-34.65117 0.67375,-13.02773 0.96406,-17.44873 1.48293,-22.58427 1.11551,-11.04035 3.05426,-17.01539 5.90795,-18.20774 1.24137,-0.51867 2.17619,-0.009 3.0878,1.68283 1.25726,2.33364 1.99029,5.63316 4.23532,19.06397 3.31369,19.8241 6.38954,30.81852 11.36541,40.62497 6.0178,11.85984 14.02648,19.57946 24.24099,23.36602 5.08621,1.88549 9.07576,2.519 12.91986,2.05161 5.17883,-0.62969 9.46244,-2.31432 14.37907,-5.48122 4.07624,-2.66837 6.41314,-3.92175 9.08997,-3.82375 4.92298,0.18609 7.42608,1.59494 16.63911,8.45084 4.26749,3.29462 6.75616,4.41487 11.21498,6.89842 -0.0467,0.0467 -7.04203,-1.73595 -7.92281,-1.94139 -5.97372,-1.39331 -12.76279,-1.05172 -27.25929,1.11329 -9.67065,1.44429 -32.48719,5.63847 -44.36674,8.15559 -36.6489,7.76543 -47.17643,9.52021 -58.26476,9.71187 -3.30747,0.0572 -7.27642,-5.3e-4 -8.8199,-0.12812 z" id="path2732-5-5"/>
      </g>
      <path id="path993-3-4" d="m 4.6939807,296.16066 c -2.0443015,-0.85133 -3.79271424,-2.55046 -4.41104094,-4.28672 -0.2901218,-0.81468 -0.4541577,-4.44057 -0.4541577,-10.03875 v -8.76344 l 1.29313854,0.17816 c 0.7112313,0.098 3.4417601,0.51744 6.0678421,0.93211 4.0312013,0.63655 6.1067763,0.75273 13.3293393,0.74612 9.765804,-0.009 13.976699,-0.50511 34.019696,-4.00849 24.464307,-4.2762 43.444421,-7.14737 52.100582,-7.88139 5.82886,-0.49427 12.00312,-0.25695 14.94404,0.5744 l 2.1884,0.61864 0.11275,12.72038 c 0.0744,8.38801 -0.0356,13.23343 -0.32252,14.22675 -0.61757,2.13727 -2.10482,3.78616 -4.33686,4.80819 l -1.92732,0.88251 -55.451944,-3.9e-4 -55.4519523,-3.8e-4 z" style="opacity:1;fill:#195372;fill-opacity:1;stroke:none;stroke-width:13.79357433;stroke-linecap:butt;stroke-linejoin:round;stroke-miterlimit:4;stroke-dasharray:none;stroke-dashoffset:0;stroke-opacity:1;"/>
    </g>
  </g>
</svg>
